<svg width="81" height="43" viewBox="0 0 81 43" fill="none" xmlns="http://www.w3.org/2000/svg">
<path d="M42.1665 8.64167C42.1637 8.64167 42.1609 8.64167 42.1582 8.64167H39.3326V7.67481C39.3478 7.29214 39.1003 6.94821 38.7325 6.84132C36.7709 6.32726 34.7509 6.0695 32.723 6.0745C29.389 6.0745 24.8465 6.82465 21.4875 10.242C18.1535 6.79131 13.5776 6.0745 10.252 6.0745C8.22409 6.0695 6.20412 6.32726 4.24249 6.84132C3.87471 6.94821 3.62716 7.29214 3.64237 7.67481V8.63333H0.833495C0.373197 8.63333 0 9.00653 0 9.46683V36.0887C0 36.5489 0.373197 36.9221 0.833495 36.9221C0.976648 36.9217 1.1173 36.8844 1.24191 36.8138C1.32526 36.7721 9.6602 32.2129 21.2958 35.1468H21.4208H21.4958C21.5623 35.1548 21.6294 35.1548 21.6959 35.1468C33.3648 32.1879 41.6997 36.7388 41.7498 36.8138C42.0076 36.9627 42.3254 36.9627 42.5833 36.8138C42.8396 36.6658 42.9982 36.393 43 36.097V9.47516C43 9.01487 42.6269 8.64167 42.1665 8.64167ZM1.66699 34.7634V10.3087H3.65904V31.2127C3.65383 31.673 4.02276 32.0504 4.48306 32.0556C4.52806 32.0561 4.57307 32.053 4.61756 32.0462C6.34185 31.7829 8.08271 31.6436 9.8269 31.6295C12.243 31.5876 14.649 31.951 16.945 32.7047C11.7601 32.0777 6.50095 32.7863 1.66699 34.7634ZM9.8269 29.9708C8.31088 29.9742 6.79663 30.0717 5.29269 30.2625V8.33327C6.91551 7.97175 8.5727 7.78723 10.2353 7.78317C13.3526 7.78317 17.6534 8.49997 20.6373 11.8673L20.6623 32.6296C18.9287 31.4961 15.5447 29.9708 9.8269 29.9708ZM22.3293 11.8673C25.3132 8.53331 29.6141 7.78317 32.7313 7.78317C34.3939 7.78806 36.051 7.97248 37.674 8.33327V30.2625C36.1785 30.0699 34.6726 29.9697 33.1648 29.9625C27.4803 29.9625 24.088 31.4878 22.3293 32.6213V11.8673V11.8673ZM41.3247 34.7634C36.4804 32.7809 31.2092 32.0721 26.0134 32.7047C28.3202 31.9483 30.7376 31.5848 33.1648 31.6295C34.9199 31.6392 36.672 31.7757 38.4074 32.0379C38.8625 32.1069 39.2875 31.794 39.3566 31.3389C39.3634 31.2944 39.3665 31.2494 39.366 31.2044V10.3087H41.358L41.3247 34.7634Z" fill="#1C3ED3"/>
<path d="M61.3516 30L55.2969 14.1797H55.1992C55.3132 15.4329 55.3701 16.9222 55.3701 18.6475V30H53.4536V12.1533H56.5786L62.2305 26.875H62.3281L68.0288 12.1533H71.1294V30H69.0542V18.501C69.0542 17.1826 69.1112 15.7503 69.2251 14.2041H69.1274L63.0239 30H61.3516ZM75.4385 28.7061C75.4385 28.1608 75.5605 27.7498 75.8047 27.4731C76.057 27.1883 76.415 27.0459 76.8789 27.0459C77.3509 27.0459 77.7171 27.1883 77.9775 27.4731C78.2461 27.7498 78.3804 28.1608 78.3804 28.7061C78.3804 29.235 78.2461 29.6419 77.9775 29.9268C77.709 30.2116 77.3428 30.354 76.8789 30.354C76.4639 30.354 76.118 30.2279 75.8413 29.9756C75.5728 29.7152 75.4385 29.292 75.4385 28.7061Z" fill="#1C3ED3"/>
</svg>
