<svg width="181" height="43" viewBox="0 0 181 43" fill="none" xmlns="http://www.w3.org/2000/svg">
<path d="M42.1665 8.64167C42.1637 8.64167 42.1609 8.64167 42.1582 8.64167H39.3326V7.67481C39.3478 7.29214 39.1003 6.94821 38.7325 6.84132C36.7709 6.32726 34.7509 6.0695 32.723 6.0745C29.389 6.0745 24.8465 6.82465 21.4875 10.242C18.1535 6.79131 13.5776 6.0745 10.252 6.0745C8.22409 6.0695 6.20412 6.32726 4.24249 6.84132C3.87471 6.94821 3.62716 7.29214 3.64237 7.67481V8.63333H0.833495C0.373197 8.63333 0 9.00653 0 9.46683V36.0887C0 36.5489 0.373197 36.9221 0.833495 36.9221C0.976648 36.9217 1.1173 36.8844 1.24191 36.8138C1.32526 36.7721 9.6602 32.2129 21.2958 35.1468H21.4208H21.4958C21.5623 35.1548 21.6294 35.1548 21.6959 35.1468C33.3648 32.1879 41.6997 36.7388 41.7498 36.8138C42.0076 36.9627 42.3254 36.9627 42.5833 36.8138C42.8396 36.6658 42.9982 36.393 43 36.097V9.47516C43 9.01487 42.6269 8.64167 42.1665 8.64167ZM1.66699 34.7634V10.3087H3.65904V31.2127C3.65383 31.673 4.02276 32.0504 4.48306 32.0556C4.52806 32.0561 4.57307 32.053 4.61756 32.0462C6.34185 31.7829 8.08271 31.6436 9.8269 31.6295C12.243 31.5876 14.649 31.951 16.945 32.7047C11.7601 32.0777 6.50095 32.7863 1.66699 34.7634ZM9.8269 29.9708C8.31088 29.9742 6.79663 30.0717 5.29269 30.2625V8.33327C6.91551 7.97175 8.5727 7.78723 10.2353 7.78317C13.3526 7.78317 17.6534 8.49997 20.6373 11.8673L20.6623 32.6296C18.9287 31.4961 15.5447 29.9708 9.8269 29.9708ZM22.3293 11.8673C25.3132 8.53331 29.6141 7.78317 32.7313 7.78317C34.3939 7.78806 36.051 7.97248 37.674 8.33327V30.2625C36.1785 30.0699 34.6726 29.9697 33.1648 29.9625C27.4803 29.9625 24.088 31.4878 22.3293 32.6213V11.8673V11.8673ZM41.3247 34.7634C36.4804 32.7809 31.2092 32.0721 26.0134 32.7047C28.3202 31.9483 30.7376 31.5848 33.1648 31.6295C34.9199 31.6392 36.672 31.7757 38.4074 32.0379C38.8625 32.1069 39.2875 31.794 39.3566 31.3389C39.3634 31.2944 39.3665 31.2494 39.366 31.2044V10.3087H41.358L41.3247 34.7634Z" fill="#1C3ED3"/>
<path d="M70.2017 30V21.2964C70.2017 20.2303 69.9738 19.4328 69.5181 18.9038C69.0623 18.3667 68.3543 18.0981 67.394 18.0981C66.1326 18.0981 65.2008 18.4603 64.5986 19.1846C63.9964 19.9089 63.6953 21.0238 63.6953 22.5293V30H61.6689V21.2964C61.6689 20.2303 61.4411 19.4328 60.9854 18.9038C60.5296 18.3667 59.8175 18.0981 58.8491 18.0981C57.5796 18.0981 56.6478 18.4806 56.0537 19.2456C55.4678 20.0024 55.1748 21.2476 55.1748 22.981V30H53.1484V16.6211H54.7964L55.126 18.4521H55.2236C55.6061 17.8011 56.1432 17.2925 56.835 16.9263C57.5348 16.5601 58.3161 16.377 59.1787 16.377C61.2702 16.377 62.6374 17.1338 63.2803 18.6475H63.3779C63.7767 17.9476 64.3545 17.3942 65.1113 16.9873C65.8682 16.5804 66.7308 16.377 67.6992 16.377C69.2129 16.377 70.3441 16.7676 71.0928 17.5488C71.8496 18.3219 72.228 19.563 72.228 21.272V30H70.2017ZM78.3193 16.6211V25.3003C78.3193 26.3908 78.5675 27.2046 79.064 27.7417C79.5604 28.2788 80.3376 28.5474 81.3955 28.5474C82.7952 28.5474 83.8166 28.1649 84.4595 27.3999C85.1105 26.6349 85.436 25.3857 85.436 23.6523V16.6211H87.4624V30H85.79L85.4971 28.2056H85.3872C84.9722 28.8647 84.3944 29.3693 83.6538 29.7192C82.9214 30.0692 82.0832 30.2441 81.1392 30.2441C79.5116 30.2441 78.2909 29.8576 77.4771 29.0845C76.6714 28.3114 76.2686 27.0744 76.2686 25.3735V16.6211H78.3193ZM96.8252 28.5474C98.1761 28.5474 99.1608 28.1852 99.7793 27.4609C100.398 26.7367 100.727 25.516 100.768 23.7988V23.3472C100.768 21.4754 100.451 20.1286 99.8159 19.3066C99.1812 18.4847 98.1761 18.0737 96.8008 18.0737C95.6126 18.0737 94.7012 18.5376 94.0664 19.4653C93.4398 20.3849 93.1265 21.687 93.1265 23.3716C93.1265 25.0562 93.4357 26.342 94.0542 27.229C94.6808 28.1079 95.6045 28.5474 96.8252 28.5474ZM96.52 30.2441C94.7948 30.2441 93.4479 29.6379 92.4795 28.4253C91.5111 27.2127 91.0269 25.52 91.0269 23.3472C91.0269 21.158 91.5151 19.4491 92.4917 18.2202C93.4683 16.9914 94.8273 16.377 96.5688 16.377C98.3999 16.377 99.8078 17.0687 100.792 18.4521H100.902L101.195 16.6211H102.794V36.0059H100.768V30.2808C100.768 29.467 100.813 28.7752 100.902 28.2056H100.744C99.8078 29.5646 98.3999 30.2441 96.52 30.2441ZM118.651 23.2983C118.651 25.4793 118.102 27.1842 117.003 28.4131C115.905 29.6338 114.387 30.2441 112.45 30.2441C111.254 30.2441 110.192 29.9634 109.264 29.4019C108.336 28.8403 107.62 28.0347 107.116 26.9849C106.611 25.9351 106.359 24.7062 106.359 23.2983C106.359 21.1174 106.904 19.4206 107.995 18.208C109.085 16.9873 110.599 16.377 112.536 16.377C114.407 16.377 115.893 16.9995 116.991 18.2446C118.098 19.4897 118.651 21.1743 118.651 23.2983ZM108.458 23.2983C108.458 25.0073 108.8 26.3094 109.484 27.2046C110.167 28.0998 111.173 28.5474 112.499 28.5474C113.826 28.5474 114.831 28.1038 115.514 27.2168C116.206 26.3216 116.552 25.0155 116.552 23.2983C116.552 21.5975 116.206 20.3076 115.514 19.4287C114.831 18.5417 113.817 18.0981 112.475 18.0981C111.148 18.0981 110.147 18.5335 109.472 19.4043C108.796 20.2751 108.458 21.5731 108.458 23.2983ZM125.146 30L120.067 16.6211H122.24L125.121 24.5557C125.772 26.4111 126.155 27.6156 126.269 28.1689H126.366C126.456 27.7376 126.736 26.8465 127.208 25.4956C127.689 24.1366 128.759 21.1784 130.419 16.6211H132.592L127.514 30H125.146ZM142.968 30L142.565 28.0957H142.467C141.8 28.9339 141.133 29.5036 140.465 29.8047C139.806 30.0977 138.98 30.2441 137.987 30.2441C136.661 30.2441 135.619 29.9023 134.862 29.2188C134.114 28.5352 133.739 27.5627 133.739 26.3013C133.739 23.5994 135.9 22.1834 140.221 22.0532L142.492 21.98V21.1499C142.492 20.1001 142.264 19.327 141.808 18.8306C141.361 18.326 140.64 18.0737 139.647 18.0737C138.533 18.0737 137.271 18.4155 135.863 19.0991L135.241 17.5488C135.9 17.1908 136.62 16.91 137.401 16.7065C138.191 16.5031 138.98 16.4014 139.77 16.4014C141.365 16.4014 142.545 16.7554 143.31 17.4634C144.083 18.1714 144.469 19.3066 144.469 20.8691V30H142.968ZM138.39 28.5718C139.652 28.5718 140.64 28.2259 141.356 27.5342C142.081 26.8424 142.443 25.874 142.443 24.6289V23.4204L140.417 23.5059C138.805 23.5628 137.641 23.8151 136.925 24.2627C136.217 24.7021 135.863 25.3898 135.863 26.3257C135.863 27.0581 136.083 27.6156 136.522 27.998C136.97 28.3805 137.593 28.5718 138.39 28.5718ZM148.363 28.7061C148.363 28.1608 148.485 27.7498 148.729 27.4731C148.982 27.1883 149.34 27.0459 149.804 27.0459C150.276 27.0459 150.642 27.1883 150.902 27.4731C151.171 27.7498 151.305 28.1608 151.305 28.7061C151.305 29.235 151.171 29.6419 150.902 29.9268C150.634 30.2116 150.268 30.354 149.804 30.354C149.389 30.354 149.043 30.2279 148.766 29.9756C148.498 29.7152 148.363 29.292 148.363 28.7061ZM157.226 16.6211V25.3003C157.226 26.3908 157.474 27.2046 157.97 27.7417C158.467 28.2788 159.244 28.5474 160.302 28.5474C161.701 28.5474 162.723 28.1649 163.366 27.3999C164.017 26.6349 164.342 25.3857 164.342 23.6523V16.6211H166.369V30H164.696L164.403 28.2056H164.293C163.878 28.8647 163.301 29.3693 162.56 29.7192C161.828 30.0692 160.989 30.2441 160.045 30.2441C158.418 30.2441 157.197 29.8576 156.383 29.0845C155.578 28.3114 155.175 27.0744 155.175 25.3735V16.6211H157.226ZM179.235 30H169.53V28.6206L176.83 18.1958H169.982V16.6211H179.052V18.1958L171.85 28.4253H179.235V30Z" fill="#1C3ED3"/>
</svg>
